<svg xmlns="http://www.w3.org/2000/svg" fill="none" viewBox="0 0 80 80" height="80" width="80">
<rect fill="black" rx="20" height="80" width="80"></rect>
<path fill="black" d="M69.4513 29.7782C65.2348 17.1287 53.4158 8.69568 40.0635 8.69568C22.8142 8.69568 8.69531 22.7507 8.69531 40C8.69531 42.4916 9.07863 45.1109 9.84527 48.1775C13.5507 61.7853 26.0085 71.3044 40.1274 71.3044C57.3129 71.3044 71.304 57.2494 71.304 40C71.304 36.5502 70.6651 33.2281 69.4513 29.7782ZM40.0635 68.0462C27.414 68.0462 16.2339 59.5493 12.9118 47.347C12.2091 44.536 11.8896 42.236 11.8896 40C11.8896 24.5395 24.5391 11.89 40.0635 11.89C52.0103 11.89 62.6155 19.5564 66.3848 30.8643C67.5347 33.9308 68.0458 36.9335 68.0458 40C68.0458 55.5244 55.5241 68.0462 40.0635 68.0462Z"></path>
<path fill="url(#paint0_linear_1044_5432)" d="M69.4513 29.7782C65.2348 17.1287 53.4158 8.69568 40.0635 8.69568C22.8142 8.69568 8.69531 22.7507 8.69531 40C8.69531 42.4916 9.07863 45.1109 9.84527 48.1775C13.5507 61.7853 26.0085 71.3044 40.1274 71.3044C57.3129 71.3044 71.304 57.2494 71.304 40C71.304 36.5502 70.6651 33.2281 69.4513 29.7782ZM40.0635 68.0462C27.414 68.0462 16.2339 59.5493 12.9118 47.347C12.2091 44.536 11.8896 42.236 11.8896 40C11.8896 24.5395 24.5391 11.89 40.0635 11.89C52.0103 11.89 62.6155 19.5564 66.3848 30.8643C67.5347 33.9308 68.0458 36.9335 68.0458 40C68.0458 55.5244 55.5241 68.0462 40.0635 68.0462Z"></path>
<path fill="black" d="M19.6836 27.4783L37.8912 22.8785C39.2328 22.5591 40.6383 22.3674 41.98 22.3674H42.0438C42.4272 22.3674 51.4351 21.7925 58.3349 27.095L59.7404 26.7756C54.7572 19.5564 45.877 16.1066 37.3162 18.0232L28.8832 20.1314L29.1388 17.001L19.6836 27.4783Z"></path>
<path fill="url(#paint1_linear_1044_5432)" d="M19.6836 27.4783L37.8912 22.8785C39.2328 22.5591 40.6383 22.3674 41.98 22.3674H42.0438C42.4272 22.3674 51.4351 21.7925 58.3349 27.095L59.7404 26.7756C54.7572 19.5564 45.877 16.1066 37.3162 18.0232L28.8832 20.1314L29.1388 17.001L19.6836 27.4783Z"></path>
<path fill="black" d="M42.1079 56.802C40.7663 57.1214 39.3608 57.3131 38.0192 57.3131H37.9553C37.572 57.3131 28.564 57.888 21.6643 52.5855L20.2588 52.9049C25.2419 60.1241 34.1221 63.5739 42.6829 61.7212L51.1159 59.613L50.8604 62.7434L60.3156 52.2021L42.1079 56.802Z"></path>
<path fill="url(#paint2_linear_1044_5432)" d="M42.1079 56.802C40.7663 57.1214 39.3608 57.3131 38.0192 57.3131H37.9553C37.572 57.3131 28.564 57.888 21.6643 52.5855L20.2588 52.9049C25.2419 60.1241 34.1221 63.5739 42.6829 61.7212L51.1159 59.613L50.8604 62.7434L60.3156 52.2021L42.1079 56.802Z"></path>
<path fill="black" d="M34.1217 26.7759C31.3107 26.7759 29.0107 28.8841 29.0107 31.4396V49.0722C29.0107 51.6277 31.3107 53.7359 34.1217 53.7359H50.9877C50.9877 50.7333 48.3044 48.3695 45.0462 48.3695H41.7241C38.402 48.3695 35.7827 45.9418 35.7827 42.9391H44.4713C46.1323 42.9391 47.41 41.7253 47.41 40.2559C47.41 38.7865 46.0684 37.5727 44.4713 37.5727H35.7827C35.7827 34.6339 38.402 32.2062 41.6603 32.2062H45.0462C48.3044 32.2062 50.9877 29.7785 50.9877 26.8398L34.1217 26.7759Z"></path>
<path fill="url(#paint3_linear_1044_5432)" d="M34.1217 26.7759C31.3107 26.7759 29.0107 28.8841 29.0107 31.4396V49.0722C29.0107 51.6277 31.3107 53.7359 34.1217 53.7359H50.9877C50.9877 50.7333 48.3044 48.3695 45.0462 48.3695H41.7241C38.402 48.3695 35.7827 45.9418 35.7827 42.9391H44.4713C46.1323 42.9391 47.41 41.7253 47.41 40.2559C47.41 38.7865 46.0684 37.5727 44.4713 37.5727H35.7827C35.7827 34.6339 38.402 32.2062 41.6603 32.2062H45.0462C48.3044 32.2062 50.9877 29.7785 50.9877 26.8398L34.1217 26.7759Z"></path>
<path fill="black" d="M34.1217 26.7759C31.3107 26.7759 29.0107 28.8841 29.0107 31.4396V36.8699C29.0107 34.3145 31.3107 32.2062 34.1217 32.2062H35.7188H44.9823C48.2406 32.2062 50.9238 29.7785 50.9238 26.8398H34.1217V26.7759Z"></path>
<path fill="url(#paint4_linear_1044_5432)" d="M34.1217 26.7759C31.3107 26.7759 29.0107 28.8841 29.0107 31.4396V36.8699C29.0107 34.3145 31.3107 32.2062 34.1217 32.2062H35.7188H44.9823C48.2406 32.2062 50.9238 29.7785 50.9238 26.8398H34.1217V26.7759Z"></path>
<path fill="black" d="M29.0107 49.0725C29.0107 51.628 31.3107 53.7362 34.1217 53.7362H50.9877C50.9877 50.7336 48.3044 48.3698 45.0462 48.3698H35.7827H34.1855C31.3745 48.3698 29.0746 46.2615 29.0746 43.7061V49.0725H29.0107Z"></path>
<path fill="url(#paint5_linear_1044_5432)" d="M29.0107 49.0725C29.0107 51.628 31.3107 53.7362 34.1217 53.7362H50.9877C50.9877 50.7336 48.3044 48.3698 45.0462 48.3698H35.7827H34.1855C31.3745 48.3698 29.0746 46.2615 29.0746 43.7061V49.0725H29.0107Z"></path>
<path fill="black" d="M29.0107 38.2754C29.0107 40.8309 31.3107 42.9391 34.1217 42.9391H50.6682C50.6682 39.9364 47.985 37.5726 44.7268 37.5726H44.8546H34.1217C31.3107 37.5726 29.0107 35.4644 29.0107 32.9089V38.2754Z"></path>
<path fill="url(#paint6_linear_1044_5432)" d="M29.0107 38.2754C29.0107 40.8309 31.3107 42.9391 34.1217 42.9391H50.6682C50.6682 39.9364 47.985 37.5726 44.7268 37.5726H44.8546H34.1217C31.3107 37.5726 29.0107 35.4644 29.0107 32.9089V38.2754Z"></path>
<defs>
<linearGradient gradientUnits="userSpaceOnUse" y2="40" x2="71.304" y1="40" x1="8.69531" id="paint0_linear_1044_5432">
<stop stop-color="#0051C9"></stop>
<stop stop-color="#2EFEEF" offset="1"></stop>
</linearGradient>
<linearGradient gradientUnits="userSpaceOnUse" y2="22.2397" x2="59.7404" y1="22.2397" x1="19.6836" id="paint1_linear_1044_5432">
<stop stop-color="#0051C9"></stop>
<stop stop-color="#2EFEEF" offset="1"></stop>
</linearGradient>
<linearGradient gradientUnits="userSpaceOnUse" y2="57.4728" x2="60.3156" y1="57.4728" x1="20.2588" id="paint2_linear_1044_5432">
<stop stop-color="#0051C9"></stop>
<stop stop-color="#2EFEEF" offset="1"></stop>
</linearGradient>
<linearGradient gradientUnits="userSpaceOnUse" y2="26.7759" x2="39.9992" y1="53.7359" x1="39.9992" id="paint3_linear_1044_5432">
<stop stop-color="#0051C9"></stop>
<stop stop-color="#2EFEEF" offset="1"></stop>
</linearGradient>
<linearGradient gradientUnits="userSpaceOnUse" y2="31.8229" x2="50.9238" y1="31.8229" x1="29.0107" id="paint4_linear_1044_5432">
<stop stop-color="#0051C9"></stop>
<stop stop-color="#2EFEEF" offset="1"></stop>
</linearGradient>
<linearGradient gradientUnits="userSpaceOnUse" y2="48.7211" x2="50.9877" y1="48.7211" x1="29.0107" id="paint5_linear_1044_5432">
<stop stop-color="#0051C9"></stop>
<stop stop-color="#2EFEEF" offset="1"></stop>
</linearGradient>
<linearGradient gradientUnits="userSpaceOnUse" y2="37.924" x2="50.6682" y1="37.924" x1="29.0107" id="paint6_linear_1044_5432">
<stop stop-color="#0051C9"></stop>
<stop stop-color="#2EFEEF" offset="1"></stop>
</linearGradient>
</defs>
</svg>
