<svg xmlns="http://www.w3.org/2000/svg" fill="none" viewBox="0 0 80 80" height="80" width="80">
<rect fill="#F5F5F5" rx="20" height="80" width="80"></rect>
<path fill="#141416" d="M44.5409 35.2987V13.3385H31.993C27.8623 13.382 23.9155 15.0535 21.01 17.9898C18.1044 20.9262 16.4746 24.8903 16.4746 29.0212C16.4746 33.1522 18.1044 37.1163 21.01 40.0526C23.9155 42.989 27.8623 44.6604 31.993 44.704H35.1269V35.2987H44.5409Z"></path>
<path fill="#141416" d="M47.6771 35.2988H44.5431V44.7006H35.1309V66.6608H47.6771C49.7504 66.6826 51.8076 66.2931 53.7295 65.5148C55.6513 64.7364 57.3998 63.5847 58.8737 62.1263C60.3476 60.6679 61.5177 58.9316 62.3162 57.018C63.1147 55.1045 63.5259 53.0515 63.5259 50.978C63.5259 48.9045 63.1147 46.8516 62.3162 44.938C61.5177 43.0245 60.3476 41.2882 58.8737 39.8298C57.3998 38.3713 55.6513 37.2196 53.7295 36.4413C51.8076 35.663 49.7504 35.2735 47.6771 35.2953V35.2988Z"></path>
</svg>
